<svg width="287" height="56" viewBox="0 0 287 56" fill="none" xmlns="http://www.w3.org/2000/svg">
<path d="M0.359131 55.6302C1.17366 55.7428 2.47049 55.8553 4.16922 55.8553C7.26659 55.8553 9.4101 55.2872 10.7391 54.076C11.6983 53.1435 12.3467 51.9055 12.3467 50.2655C12.3467 47.4465 10.2354 45.9512 8.42945 45.501V45.4474C10.4283 44.7132 11.6447 43.1107 11.6447 41.2725C11.6447 39.7772 11.0499 38.6518 10.0639 37.9175C8.87959 36.9582 7.29875 36.5294 4.84443 36.5294C3.12426 36.5294 1.43089 36.7009 0.36449 36.926V55.6302H0.359131ZM2.80809 38.5928C3.20464 38.5071 3.85305 38.4267 4.9784 38.4267C7.46487 38.4267 9.15288 39.3002 9.15288 41.5244C9.15288 43.3573 7.63099 44.7132 5.03734 44.7132H2.80809V38.5928ZM2.80809 46.5783H4.83907C7.51846 46.5783 9.74771 47.6501 9.74771 50.2441C9.74771 53.0095 7.40592 53.942 4.86586 53.942C3.99238 53.942 3.29038 53.9152 2.80809 53.8295V46.5783ZM27.2655 42.0389H24.7791V50.4156C24.7791 50.8657 24.6933 51.3213 24.554 51.6857C24.1039 52.7844 22.9464 53.942 21.2852 53.942C19.0291 53.942 18.2414 52.1949 18.2414 49.5956V42.0389H15.7603V50.019C15.7603 54.8156 18.3218 56 20.4653 56C22.8928 56 24.3289 54.5583 24.9827 53.4597H25.0363L25.1756 55.6838H27.3781C27.2923 54.6119 27.2655 53.3739 27.2655 51.9644V42.0389ZM30.7059 55.0407C31.6651 55.6034 33.0423 55.9679 34.5428 55.9679C37.7848 55.9679 39.6443 54.2797 39.6443 51.8787C39.6443 49.8475 38.4332 48.6684 36.0647 47.7627C34.2855 47.082 33.4657 46.5783 33.4657 45.4474C33.4657 44.4345 34.2855 43.5877 35.7485 43.5877C37.0185 43.5877 38.0045 44.0379 38.5404 44.3809L39.162 42.5748C38.4011 42.1193 37.19 41.728 35.8074 41.728C32.8762 41.728 31.0971 43.5288 31.0971 45.7315C31.0971 47.3661 32.2546 48.722 34.7035 49.5956C36.5362 50.2762 37.2436 50.9247 37.2436 52.1091C37.2436 53.2346 36.3969 54.1403 34.591 54.1403C33.3531 54.1403 32.0509 53.6312 31.3221 53.1488L30.7059 55.0407ZM45.5979 55.6838V42.0389H43.1115V55.6892H45.5979V55.6838ZM44.3547 36.6527C43.4544 36.6527 42.806 37.328 42.806 38.2016C42.806 39.0483 43.4276 39.7236 44.3011 39.7236C45.2871 39.7236 45.9087 39.0483 45.8766 38.2016C45.8766 37.3226 45.2871 36.6527 44.3547 36.6527ZM49.9975 55.6838H52.484V47.4786C52.484 47.0552 52.5375 46.6318 52.6501 46.321C53.0734 44.9383 54.3434 43.7807 55.9779 43.7807C58.3143 43.7807 59.1342 45.6136 59.1342 47.8109V55.6785H61.6153V47.5376C61.6153 42.8535 58.6841 41.728 56.7978 41.728C54.5364 41.728 52.9609 42.9982 52.2803 44.2898H52.2267L52.0874 42.0335H49.8849C49.9707 43.159 49.9975 44.3166 49.9975 45.7315V55.6838ZM76.9039 49.3169C76.9307 49.065 76.9896 48.6684 76.9896 48.1593C76.9896 45.6511 75.8053 41.728 71.3522 41.728C67.376 41.728 64.9485 44.9704 64.9485 49.0864C64.9485 53.2078 67.4617 55.9679 71.663 55.9679C73.8333 55.9679 75.3338 55.5177 76.2073 55.1211L75.7839 53.3418C74.8515 53.7384 73.7797 54.0438 72.006 54.0438C69.5195 54.0438 67.3813 52.6611 67.3224 49.3062H76.9039V49.3169ZM67.3438 47.5376C67.5368 45.8172 68.6353 43.502 71.1486 43.502C73.9405 43.502 74.6211 45.9566 74.5889 47.5376H67.3438ZM79.385 55.0407C80.3442 55.6034 81.7214 55.9679 83.2165 55.9679C86.464 55.9679 88.3234 54.2797 88.3234 51.8787C88.3234 49.8475 87.1124 48.6684 84.7384 47.7627C82.9647 47.082 82.1448 46.5783 82.1448 45.4474C82.1448 44.4345 82.9647 43.5877 84.4276 43.5877C85.6976 43.5877 86.6837 44.0379 87.2195 44.3809L87.8412 42.5748C87.0802 42.1193 85.8691 41.728 84.4812 41.728C81.5499 41.728 79.7762 43.5288 79.7762 45.7315C79.7762 47.3661 80.9337 48.722 83.3827 49.5956C85.2154 50.2762 85.9227 50.9247 85.9227 52.1091C85.9227 53.2346 85.076 54.1403 83.2701 54.1403C82.0322 54.1403 80.7301 53.6312 80.0013 53.1488L79.385 55.0407ZM90.8367 55.0407C91.7959 55.6034 93.1731 55.9679 94.6682 55.9679C97.9157 55.9679 99.7752 54.2797 99.7752 51.8787C99.7752 49.8475 98.5641 48.6684 96.1901 47.7627C94.411 47.082 93.5965 46.5783 93.5965 45.4474C93.5965 44.4345 94.411 43.5877 95.8793 43.5877C97.1494 43.5877 98.1354 44.0379 98.6712 44.3809L99.2929 42.5748C98.5319 42.1193 97.3155 41.728 95.9329 41.728C93.0017 41.728 91.2279 43.5288 91.2279 45.7315C91.2279 47.3661 92.38 48.722 94.8344 49.5956C96.6671 50.2762 97.3744 50.9247 97.3744 52.1091C97.3744 53.2346 96.5277 54.1403 94.7218 54.1403C93.4839 54.1403 92.1818 53.6312 91.453 53.1488L90.8367 55.0407ZM108.349 54.7566C109.362 55.4319 111.366 55.9679 113.199 55.9679C117.684 55.9679 119.854 53.4275 119.854 50.4959C119.854 47.7037 118.22 46.1549 115.005 44.9115C112.384 43.8986 111.227 43.0196 111.227 41.2457C111.227 39.9541 112.213 38.3999 114.812 38.3999C116.532 38.3999 117.802 38.9626 118.418 39.3056L119.099 37.3012C118.252 36.8242 116.843 36.374 114.898 36.374C111.2 36.374 108.751 38.5714 108.751 41.5351C108.751 44.2148 110.664 45.8226 113.767 46.9266C116.334 47.9127 117.352 48.931 117.352 50.705C117.352 52.6236 115.884 53.9474 113.376 53.9474C111.682 53.9474 110.075 53.3846 108.976 52.7094L108.349 54.7566ZM134.548 49.3169C134.575 49.065 134.634 48.6684 134.634 48.1593C134.634 45.6511 133.45 41.728 128.991 41.728C125.015 41.728 122.593 44.9704 122.593 49.0864C122.593 53.2078 125.101 55.9679 129.307 55.9679C131.478 55.9679 132.973 55.5177 133.846 55.1211L133.423 53.3418C132.49 53.7384 131.419 54.0438 129.645 54.0438C127.164 54.0438 125.02 52.6611 124.961 49.3062H134.548V49.3169ZM124.994 47.5376C125.186 45.8172 126.285 43.502 128.804 43.502C131.596 43.502 132.271 45.9566 132.239 47.5376H124.994ZM137.994 55.6838H140.448V48.4112C140.448 47.9878 140.507 47.5912 140.561 47.2535C140.898 45.3938 142.142 44.0647 143.889 44.0647C144.226 44.0647 144.478 44.0915 144.735 44.1505V41.8138C144.51 41.7548 144.312 41.728 144.033 41.728C142.367 41.728 140.877 42.8803 140.255 44.7186H140.137L140.052 42.0389H137.881C137.967 43.309 137.994 44.6918 137.994 46.2942V55.6838ZM146.509 42.0389L151.696 55.6892H154.07L159.424 42.0389H156.83L154.177 49.7135C153.722 50.9515 153.331 52.0823 153.02 53.2078H152.934C152.65 52.0823 152.286 50.9515 151.83 49.7135L149.151 42.0389H146.509ZM164.531 55.6838V42.0389H162.049V55.6892H164.531V55.6838ZM163.293 36.6527C162.387 36.6527 161.739 37.328 161.739 38.2016C161.739 39.0483 162.36 39.7236 163.239 39.7236C164.225 39.7236 164.847 39.0483 164.815 38.2016C164.815 37.3226 164.225 36.6527 163.293 36.6527ZM178.244 53.3203C177.536 53.6312 176.604 54.001 175.2 54.001C172.488 54.001 170.463 52.0555 170.463 48.8935C170.463 46.0423 172.156 43.7324 175.286 43.7324C176.636 43.7324 177.568 44.0379 178.163 44.3809L178.731 42.4623C178.051 42.1193 176.754 41.7548 175.291 41.7548C170.833 41.7548 167.96 44.7989 167.96 49.006C167.96 53.181 170.64 55.9732 174.755 55.9732C176.588 55.9732 178.024 55.523 178.672 55.18L178.244 53.3203ZM192.653 49.3169C192.68 49.065 192.739 48.6684 192.739 48.1593C192.739 45.6511 191.555 41.728 187.102 41.728C183.126 41.728 180.698 44.9704 180.698 49.0864C180.698 53.2078 183.211 55.9679 187.413 55.9679C189.583 55.9679 191.083 55.5177 191.957 55.1211L191.533 53.3418C190.601 53.7384 189.535 54.0438 187.756 54.0438C185.269 54.0438 183.131 52.6611 183.072 49.3062H192.653V49.3169ZM183.093 47.5376C183.286 45.8172 184.385 43.502 186.898 43.502C189.69 43.502 190.371 45.9566 190.338 47.5376H183.093ZM195.135 55.0407C196.094 55.6034 197.471 55.9679 198.966 55.9679C202.214 55.9679 204.073 54.2797 204.073 51.8787C204.073 49.8475 202.862 48.6684 200.488 47.7627C198.709 47.082 197.894 46.5783 197.894 45.4474C197.894 44.4345 198.709 43.5877 200.177 43.5877C201.447 43.5877 202.433 44.0379 202.969 44.3809L203.591 42.5748C202.83 42.1193 201.619 41.728 200.231 41.728C197.3 41.728 195.526 43.5288 195.526 45.7315C195.526 47.3661 196.683 48.722 199.132 49.5956C200.965 50.2762 201.672 50.9247 201.672 52.1091C201.672 53.2346 200.826 54.1403 199.02 54.1403C197.782 54.1403 196.48 53.6312 195.751 53.1488L195.135 55.0407Z" fill="url(#paint0_linear_159_203)"/>
<path d="M224.886 0.0107422H272.955C280.714 0.0107422 287 6.29728 287 14.0576V55.4587H224.886V0.0107422Z" fill="url(#paint1_linear_159_203)"/>
<path d="M236.284 19.7279C237.008 19.8244 238.074 19.9209 239.58 19.9209C242.093 19.9209 244.151 19.3849 245.502 18.2595C246.739 17.2144 247.634 15.5155 247.634 13.0609C247.634 10.7939 246.798 9.21285 245.464 8.22136C244.226 7.28883 242.645 6.84937 240.207 6.84937C238.739 6.84937 237.351 6.94583 236.284 7.11733V19.7279ZM239.2 9.19141C239.451 9.13781 239.864 9.07886 240.513 9.07886C243.01 9.07886 244.569 10.4884 244.553 13.152C244.553 16.2175 242.838 17.6699 240.207 17.6485C239.843 17.6485 239.446 17.6485 239.194 17.5895V9.19141H239.2Z" fill="white"/>
<path d="M236.284 43.8074C237.206 43.9307 238.669 44.0593 240.577 44.0593C244.076 44.0593 246.488 43.4215 247.983 42.0549C249.065 41.0044 249.799 39.6056 249.799 37.762C249.799 34.5839 247.415 32.8957 245.378 32.3919V32.3276C247.634 31.4969 249.001 29.6908 249.001 27.6221C249.001 25.9393 248.331 24.6691 247.222 23.8384C245.887 22.7558 244.103 22.2842 241.343 22.2842C239.403 22.2842 237.496 22.4771 236.29 22.729V43.8074H236.284ZM239.055 24.5994C239.5 24.5083 240.228 24.4118 241.504 24.4118C244.301 24.4118 246.204 25.3926 246.204 27.9062C246.204 29.9749 244.489 31.4969 241.563 31.4969H239.055V24.5994ZM239.055 33.5978H241.343C244.36 33.5978 246.873 34.809 246.873 37.7352C246.873 40.849 244.237 41.8995 241.37 41.8995C240.384 41.8995 239.591 41.8727 239.05 41.7762V33.5978H239.055Z" fill="white"/>
<path d="M255.517 43.8502H257.923V26.2876H255.801L251.787 28.3456L252.27 30.1571L255.463 28.5064H255.517V43.8502Z" fill="white"/>
<path d="M273.148 28.4797L273.024 30.8003H272.96C272.29 29.5301 270.827 28.126 268.159 28.126C264.633 28.126 261.23 31.0843 261.23 36.299C261.23 40.5597 263.963 43.8021 267.773 43.8021C270.157 43.8021 271.813 42.6552 272.671 41.2243H272.735V42.9393C272.735 46.8194 270.64 48.3147 267.773 48.3147C265.865 48.3147 264.279 47.7412 263.255 47.1035L262.559 49.2365C263.797 50.0672 265.833 50.512 267.676 50.512C269.616 50.512 271.781 50.0672 273.271 48.6684C274.766 47.3339 275.463 45.1688 275.463 41.6369V32.7082C275.463 30.8325 275.527 29.5891 275.591 28.4743H273.148V28.4797ZM272.703 37.3173C272.703 37.7943 272.639 38.3356 272.483 38.8125C271.878 40.5919 270.318 41.6744 268.603 41.6744C265.581 41.6744 264.054 39.1609 264.054 36.1436C264.054 32.5796 265.962 30.3233 268.636 30.3233C270.672 30.3233 272.033 31.6524 272.542 33.2763C272.671 33.6568 272.703 34.0695 272.703 34.5519V37.3173Z" fill="white"/>
<path d="M257.168 6.84399C252.522 6.84399 248.84 10.14 248.84 15.7566C248.84 21.0624 252.345 24.3906 256.889 24.3906C260.946 24.3906 265.243 21.6841 265.243 15.4779C265.249 10.349 261.991 6.84399 257.168 6.84399ZM257.098 9.13244C260.704 9.13244 262.125 12.7393 262.125 15.5851C262.125 19.3688 259.938 22.1075 257.028 22.1075C254.049 22.1075 251.932 19.3313 251.932 15.6548C251.932 12.466 253.492 9.13244 257.098 9.13244Z" fill="white"/>
<path d="M214.93 0.0107422H213.386V55.6195H214.93V0.0107422Z" fill="url(#paint2_linear_159_203)"/>
<path d="M137.967 29.2674H143.283V4.58756H151.669V0.133928H129.672V4.58756H137.967V29.2674ZM169.718 20.2315C169.804 19.7546 169.895 18.9775 169.895 17.986C169.895 13.3608 167.687 7.73887 160.817 7.73887C154.076 7.73887 150.528 13.2269 150.528 19.0686C150.528 25.5105 154.547 29.7498 161.374 29.7498C164.402 29.7498 166.91 29.1442 168.721 28.4099L167.944 24.7334C166.347 25.339 164.573 25.682 162.108 25.682C158.738 25.682 155.753 24.0367 155.624 20.2369H169.718V20.2315ZM155.63 16.5175C155.844 14.3523 157.226 11.3725 160.517 11.3725C164.064 11.3725 164.922 14.5667 164.884 16.5175H155.63ZM174.503 29.2674H179.862V0.0856934H174.503V29.2674ZM203.789 20.2315C203.875 19.7546 203.966 18.9775 203.966 17.986C203.966 13.3608 201.758 7.73887 194.888 7.73887C188.147 7.73887 184.599 13.2269 184.599 19.0686C184.599 25.5105 188.618 29.7498 195.445 29.7498C198.473 29.7498 200.981 29.1442 202.792 28.4099L202.015 24.7334C200.418 25.339 198.644 25.682 196.179 25.682C192.809 25.682 189.824 24.0367 189.695 20.2369H203.789V20.2315ZM189.701 16.5175C189.915 14.3523 191.298 11.3725 194.588 11.3725C198.13 11.3725 198.993 14.5667 198.955 16.5175H189.701Z" fill="url(#paint3_linear_159_203)"/>
<path fill-rule="evenodd" clip-rule="evenodd" d="M0 0H29.7734V8.70897H21.1511V29.2889H8.74016V8.70897H0V0Z" fill="#0080C6"/>
<path fill-rule="evenodd" clip-rule="evenodd" d="M44.7886 11.9085L38.5349 29.2889H26.6545L38.2831 0H51.1709L63.1853 29.2889H51.1709L44.7886 11.9085Z" fill="#0080C6"/>
<path fill-rule="evenodd" clip-rule="evenodd" d="M60.3022 0H90.097V8.70897H81.582V29.2889H69.1925V8.70897H60.3022V0Z" fill="#0080C6"/>
<path fill-rule="evenodd" clip-rule="evenodd" d="M105.091 11.9085L98.8372 29.2889H86.9568L98.5961 0H111.495L123.488 29.2889H111.495L105.091 11.9085Z" fill="#0080C6"/>
<defs>
<linearGradient id="paint0_linear_159_203" x1="0.357952" y1="46.1832" x2="204.074" y2="46.1832" gradientUnits="userSpaceOnUse">
<stop stop-color="#EF7F22"/>
<stop offset="0.2842" stop-color="#E76424"/>
<stop offset="0.5625" stop-color="#E14C26"/>
<stop offset="0.8097" stop-color="#DE3B26"/>
<stop offset="1" stop-color="#DD3526"/>
</linearGradient>
<linearGradient id="paint1_linear_159_203" x1="255.943" y1="0.0125108" x2="255.943" y2="55.4615" gradientUnits="userSpaceOnUse">
<stop stop-color="#EF7F22"/>
<stop offset="0.2467" stop-color="#E86824"/>
<stop offset="0.551" stop-color="#E24E26"/>
<stop offset="0.8128" stop-color="#DE3C26"/>
<stop offset="1" stop-color="#DD3526"/>
</linearGradient>
<linearGradient id="paint2_linear_159_203" x1="214.159" y1="0.0125108" x2="214.159" y2="55.6196" gradientUnits="userSpaceOnUse">
<stop stop-color="#EF7F22"/>
<stop offset="1" stop-color="#DD3526"/>
</linearGradient>
<linearGradient id="paint3_linear_159_203" x1="129.669" y1="14.9171" x2="203.966" y2="14.9171" gradientUnits="userSpaceOnUse">
<stop stop-color="#EF7F22"/>
<stop offset="0.3614" stop-color="#E76324"/>
<stop offset="0.7764" stop-color="#DF4326"/>
<stop offset="1" stop-color="#DD3526"/>
</linearGradient>
</defs>
</svg>
